<?xml version="1.0" encoding="UTF-8" standalone="no"?>
<!DOCTYPE svg PUBLIC "-//W3C//DTD SVG 1.1//EN" "http://www.w3.org/Graphics/SVG/1.1/DTD/svg11.dtd">
<svg width="100%" height="100%" viewBox="0 0 38613 33380" version="1.1" xmlns="http://www.w3.org/2000/svg" xmlns:xlink="http://www.w3.org/1999/xlink" xml:space="preserve" xmlns:serif="http://www.serif.com/" style="fill-rule:evenodd;clip-rule:evenodd;stroke-linecap:round;stroke-linejoin:round;stroke-miterlimit:1.5;"><path d="M37085.1,2865.21c0,-0 -2413.18,423.882 -2530.03,444.406c-2.922,0.515 -5.832,1.108 -8.719,1.784c-106.392,24.818 -2137.64,498.639 -2278.16,531.419c-5.093,1.187 -10.125,2.622 -15.072,4.301c-96.298,32.649 -1099.87,372.915 -1278.48,433.468c-17.924,6.078 -34.565,15.266 -49.119,27.113c-149.758,121.956 -1015.68,827.11 -1101.02,896.603c-4.51,3.674 -8.804,7.588 -12.862,11.727c-55.291,56.425 -470.79,480.466 -578.941,590.838c-16.88,17.226 -29.382,38.05 -36.508,60.809c-65.057,207.762 -401.444,1282.03 -416.16,1329.01c-0.329,1.06 -0.65,2.123 -0.959,3.189c-16.618,57.545 -475.987,1648.14 -487.863,1689.27c-0.159,0.54 -0.31,1.081 -0.46,1.622c-14.732,53.271 -747.453,2702.52 -762.908,2758.4c-0.162,0.598 -0.325,1.195 -0.483,1.796c-9.982,37.926 -332.406,1262.95 -335.625,1275.19c-0.016,0.06 -0.031,0.124 -0.051,0.184c-2.666,10.086 -223.207,843.679 -267.202,1009.98c-5.013,18.942 -6.23,38.643 -3.59,58.029c21.583,158.478 124.007,910.516 144.938,1064.19c2.473,18.157 1.561,36.604 -2.69,54.45c-33.684,141.379 -188.906,792.868 -205.821,863.872c-0.997,4.184 -2.176,8.331 -3.532,12.421c-24.734,74.516 -266.898,804.16 -299.654,902.869c-2.439,7.34 -5.445,14.495 -8.997,21.395c-59.677,116.01 -601.344,1168.95 -661.091,1285.1c-3.559,6.915 -7.655,13.56 -12.25,19.874c-78.351,107.668 -798.783,1097.63 -872.527,1198.97c-4.054,5.57 -8.487,10.87 -13.271,15.862c-73.405,76.63 -686.996,717.185 -799.564,834.697c-11.721,12.238 -25.433,22.523 -40.586,30.437c-270.422,141.248 -2854.53,1491 -3301.33,1724.38c-41.548,21.703 -70.857,60.411 -79.819,105.422c-23.482,117.91 -68.802,345.502 -77.992,391.65c-1.097,5.518 -2.508,10.968 -4.228,16.336c-20.799,64.982 -161.544,504.682 -204.12,637.696c-7.985,24.945 -22.423,47.479 -41.935,65.445c-139.601,128.544 -727.581,669.95 -842.028,775.334c-12.807,11.795 -27.574,21.407 -43.67,28.431c-116.058,50.645 -612.458,267.268 -720.806,314.547c-13.886,6.063 -26.794,14.052 -38.314,23.721c-102.424,85.975 -624.489,524.203 -667.68,560.458c-1.894,1.588 -3.83,3.136 -5.801,4.638c-69.52,52.933 -1341.66,1021.49 -1401.89,1067.35c-1.473,1.12 -2.922,2.265 -4.356,3.437c-57.594,47.174 -1256.3,1028.98 -1379.14,1129.6c-6.747,5.525 -13.963,10.491 -21.568,14.836c-87.371,49.954 -649.273,371.214 -765.056,437.409c-13.816,7.903 -26.307,17.812 -37.039,29.385c-143.265,154.548 -1190.7,1284.47 -1261.84,1361.22c-2.535,2.735 -4.966,5.556 -7.289,8.459c-56.288,70.339 -776.322,970.127 -863.41,1078.96c-5.728,7.156 -12.097,13.8 -19.034,19.855c-86.35,75.365 -681.499,594.79 -749.342,654.002c-4.193,3.663 -8.588,7.1 -13.163,10.3c-71.441,49.995 -678.13,474.557 -764.593,535.066c-6.817,4.767 -14.013,9 -21.526,12.647c-68.94,33.505 -435.301,211.549 -583.273,283.461c-39.535,19.209 -85.57,21.335 -126.797,5.852c-112.657,-42.306 -346.783,-130.223 -493.8,-185.432c-73.895,-27.75 -114.945,-104.658 -95.73,-179.354c28.335,-110.162 66.819,-259.775 83.348,-324.039c5.333,-20.731 15.083,-40.139 28.625,-56.974c112.328,-139.644 647.402,-804.84 651.696,-810.185c0.019,-0.019 0.035,-0.041 0.054,-0.064c6.376,-7.933 1187.99,-1478.54 1276.7,-1588.94c3.505,-4.357 6.759,-8.898 9.754,-13.601c70.834,-111.213 955.57,-1500.31 1009.18,-1584.47c1.693,-2.66 3.467,-5.267 5.326,-7.817c61.235,-84.12 1111.33,-1526.62 1167.43,-1603.68c1.554,-2.134 3.053,-4.309 4.491,-6.521c51.453,-79 1005.75,-1544.22 1072.87,-1647.28c2.477,-3.805 4.78,-7.711 6.902,-11.712c47.268,-89.145 605.46,-1141.82 632.357,-1192.54c0.673,-1.266 1.361,-2.521 2.064,-3.764c28.795,-50.765 635.264,-1120.01 669.682,-1180.69c1.012,-1.788 1.99,-3.598 2.933,-5.428c33.143,-64.422 639.692,-1243.5 697.673,-1356.21c2.96,-5.751 5.542,-11.682 7.733,-17.748c37.51,-103.975 383.991,-1064.37 416.403,-1154.2c1.616,-4.489 3.452,-8.899 5.492,-13.218c21.924,-46.374 155.987,-329.978 223.679,-473.175c24.054,-50.878 17.503,-110.474 -17.062,-155.266c-75.889,-98.349 -207.228,-268.557 -254.569,-329.907c-11.663,-15.115 -26.117,-27.995 -42.619,-37.983c-63.449,-38.395 -228.371,-138.194 -264.115,-159.826c-4.598,-2.779 -9.043,-5.792 -13.317,-9.018c-71.684,-54.108 -721.34,-544.479 -812.61,-613.372c-7.076,-5.345 -14.612,-10.085 -22.523,-14.179c-57.563,-29.787 -305.412,-158.027 -324.654,-167.985c-0.792,-0.409 -1.584,-0.811 -2.38,-1.205c-21.31,-10.574 -321.365,-159.485 -415.043,-205.979c-18.311,-9.086 -34.608,-21.579 -47.964,-36.773c-121.646,-138.363 -754.243,-857.907 -861.517,-979.923c-10.253,-11.659 -18.639,-24.757 -24.872,-38.847c-24.34,-55.013 -89.57,-202.444 -119.254,-269.537c-9.894,-22.357 -25.147,-42.092 -44.482,-57.556c-104.75,-83.605 -453.82,-362.251 -459.799,-367.31c-9.951,-8.418 -1147.13,-582.346 -1219.45,-738.085c-21.824,-46.994 -1167.35,-587.176 -1340.35,-668.546c-14.435,-6.78 -27.713,-15.671 -39.377,-26.357c-134.77,-123.504 -1000.22,-916.613 -1072.05,-982.429c-3.161,-2.896 -6.195,-5.92 -9.097,-9.06c-74.475,-80.589 -1080.12,-1168.8 -1162.8,-1258.27c-3.597,-3.891 -7.396,-7.598 -11.385,-11.11c-91.772,-80.822 -1208.64,-1064.4 -1260.38,-1109.96c-1.237,-1.09 -2.458,-2.198 -3.656,-3.325c-52.798,-49.566 -1249.26,-1172.83 -1365.01,-1281.49c-5.979,-5.612 -12.405,-10.754 -19.223,-15.378c-121.967,-82.734 -1295.56,-878.832 -1469.2,-996.615c-14.187,-9.624 -26.635,-21.456 -36.853,-35.023c-91.294,-121.269 -560.418,-744.425 -666.683,-885.575c-14.094,-18.721 -23.609,-40.319 -27.825,-63.153c-19.014,-102.954 -75.047,-406.394 -95.471,-516.991c-4.951,-26.801 -17.186,-51.821 -35.435,-72.472c-158.924,-179.824 -945.808,-1070.2 -1014.77,-1148.24c-3.216,-3.639 -6.253,-7.426 -9.105,-11.343c-52.625,-72.356 -574.033,-789.267 -631.569,-868.376c-3.428,-4.714 -6.578,-9.616 -9.438,-14.679c-29.749,-52.7 -205.137,-363.378 -238.871,-423.128c-3.733,-6.618 -6.96,-13.492 -9.646,-20.573c-38.808,-102.209 -345.209,-909.164 -388.439,-1023.02c-3.37,-8.872 -5.882,-18.026 -7.505,-27.349c-10.883,-62.458 -55.65,-319.374 -83.615,-479.85c-13.178,-75.635 33.464,-149.023 108.951,-171.425c108.406,-32.168 255.617,-75.853 329.056,-97.643c29.723,-8.819 61.47,-8.868 91.22,-0.139c395.979,116.202 3239.62,950.674 3415.25,1002.21c5.658,1.664 11.219,3.632 16.649,5.905c207.568,86.764 4310.27,1801.71 4459.02,1863.89c2.763,1.153 5.492,2.388 8.182,3.696c122.26,59.411 2980.83,1448.6 3088.38,1500.87c2.076,1.011 4.174,1.972 6.292,2.893c90.942,39.398 2102.91,911.061 2202.65,954.272c2.558,1.108 5.082,2.28 7.575,3.519c108.189,53.785 2529.06,1257.31 2706.34,1345.44c6.818,3.391 13.372,7.26 19.609,11.58c112.754,78.084 1206.08,835.223 1240.52,859.075c0.552,0.383 1.113,0.763 1.669,1.142c40.343,27.176 1521.85,1025.15 1576.64,1062.06c1.036,0.698 2.087,1.386 3.142,2.062c23.269,14.878 297.47,190.214 464.583,297.073c71.159,45.503 166.673,27.552 215.251,-40.454c189.887,-265.829 625.351,-875.456 649.702,-909.543c0.711,-0.996 1.41,-1.999 2.094,-3.009c26.086,-38.441 540.681,-796.734 649.246,-956.71c13.163,-19.393 21.591,-41.453 24.652,-64.494c27.628,-208.108 169.455,-1276.45 182.062,-1371.41c0.599,-4.497 1.399,-8.963 2.407,-13.391c20.931,-92.091 253.031,-1113.17 290.452,-1277.81c3.37,-14.821 8.993,-29.069 16.688,-42.272c83.085,-142.607 587.396,-1008.22 700.633,-1202.59c14.732,-25.283 36.586,-45.954 62.993,-59.581c240.12,-123.921 1475.67,-761.565 1693.41,-873.935c21.564,-11.129 45.505,-17.218 69.918,-17.778c260.598,-5.984 1808.83,-41.528 1939.59,-44.533c5.863,-0.132 11.726,0.052 17.565,0.556c101.882,8.77 1060.18,91.301 1207.38,103.979c12.58,1.085 25.248,0.687 37.73,-1.176c115.409,-17.26 725.394,-108.472 788.84,-117.956c3.555,-0.533 7.13,-0.946 10.716,-1.239c51.809,-4.234 462.095,-37.773 539.653,-44.113c8.406,-0.688 16.738,-2.032 24.923,-4.019c152.563,-37.074 1674.94,-406.991 1736.78,-422.016c1.291,-0.312 2.586,-0.612 3.884,-0.894c65.389,-14.18 1755.31,-380.694 1882.24,-408.219c5.016,-1.09 10.087,-1.939 15.188,-2.543c124.958,-14.811 1739.44,-206.174 1902.13,-225.458c8.78,-1.041 17.638,-1.36 26.473,-0.951c82.358,3.813 523.174,24.216 623.167,28.844c13.399,0.62 26.662,2.907 39.461,6.803c88.848,27.048 454.466,138.363 454.466,138.363" style="fill:url(#_Linear1);stroke:#f90;stroke-width:243.66px;"/><defs><linearGradient id="_Linear1" x1="0" y1="0" x2="1" y2="0" gradientUnits="userSpaceOnUse" gradientTransform="matrix(-17778.8,0,0,17280.1,19306.3,16689.6)"><stop offset="0" style="stop-color:#f30;stop-opacity:1"/><stop offset="0.67" style="stop-color:#ff3f13;stop-opacity:1"/><stop offset="0.85" style="stop-color:#ff6149;stop-opacity:1"/><stop offset="1" style="stop-color:#ff8c8c;stop-opacity:1"/></linearGradient></defs></svg>